<svg width="28" height="29" viewBox="0 0 28 29" fill="none" xmlns="http://www.w3.org/2000/svg">
<path d="M17.4994 9.66748L8.38756 18.9306C8.05937 19.2588 7.875 19.7039 7.875 20.168C7.875 20.6321 8.05937 21.0773 8.38756 21.4055C8.71575 21.7336 9.16087 21.918 9.625 21.918C10.0891 21.918 10.5342 21.7336 10.8624 21.4055L21.7242 10.3924C22.0492 10.0673 22.307 9.68151 22.4829 9.25687C22.6588 8.83223 22.7494 8.37711 22.7494 7.91748C22.7494 7.45785 22.6588 7.00273 22.4829 6.57809C22.307 6.15345 22.0492 5.76761 21.7242 5.44261C21.3992 5.1176 21.0134 4.85979 20.5888 4.6839C20.1641 4.50801 19.709 4.41748 19.2494 4.41748C18.7897 4.41748 18.3346 4.50801 17.91 4.6839C17.4853 4.85979 17.0995 5.1176 16.7745 5.44261L5.91269 16.4557C4.92812 17.4403 4.375 18.7756 4.375 20.168C4.375 21.5604 4.92812 22.8958 5.91269 23.8803C6.89726 24.8649 8.23261 25.418 9.625 25.418C11.0174 25.418 12.3527 24.8649 13.3373 23.8803L22.3119 14.9175" stroke="#9AA8BA" stroke-linecap="round" stroke-linejoin="round"/>
</svg>
