<svg width="65" height="37" viewBox="0 0 65 37" fill="none" xmlns="http://www.w3.org/2000/svg">
<rect x="1" y="2" width="62.79" height="32.395" rx="16.1975" fill="url(#paint0_linear_6311_12895)" stroke="url(#paint1_linear_6311_12895)" stroke-width="2"/>
<g filter="url(#filter0_d_6311_12895)">
<rect x="32.2305" y="3" width="30.395" height="30.395" rx="15.1975" fill="url(#paint2_linear_6311_12895)"/>
<rect x="31.2305" y="2" width="32.395" height="32.395" rx="16.1975" stroke="url(#paint3_linear_6311_12895)" stroke-width="2"/>
</g>
<path d="M10.5036 21.6595C11.0434 22.5951 11.8029 23.3852 12.7166 23.9613C13.6303 24.5374 14.6706 24.8822 15.7475 24.9658C16.8244 25.0495 17.9055 24.8695 18.8972 24.4414C19.8889 24.0133 20.7614 23.35 21.4391 22.5089C18.7431 21.4737 17.0984 20.2043 16.1128 18.3225C15.1148 16.4179 14.8395 14.3609 15.389 11.742C14.5339 11.8554 13.7034 12.1353 12.9368 12.5782C11.4099 13.4598 10.2958 14.9118 9.83951 16.6149C9.38321 18.318 9.6221 20.1325 10.5036 21.6595V21.6595ZM20.0611 24.9192C19.0665 25.4924 17.955 25.8328 16.81 25.9149C15.665 25.997 14.5163 25.8187 13.4501 25.3934C12.3839 24.968 11.4279 24.3067 10.6538 23.459C9.87973 22.6113 9.30774 21.5993 8.98075 20.4989C8.65376 19.3986 8.58027 18.2384 8.76579 17.1056C8.95131 15.9728 9.39102 14.8967 10.0519 13.9581C10.7128 13.0195 11.5777 12.2428 12.5818 11.6863C13.5858 11.1298 14.7028 10.808 15.849 10.745C15.9379 10.7402 16.0266 10.7563 16.1081 10.792C16.1896 10.8276 16.2617 10.8818 16.3185 10.9503C16.3753 11.0188 16.4153 11.0996 16.4353 11.1863C16.4554 11.273 16.4548 11.3632 16.4337 11.4497C15.7785 14.1333 16.0204 16.0922 16.9575 17.8807C17.847 19.5796 19.3802 20.7662 22.2428 21.7918C22.325 21.8211 22.3994 21.8689 22.4602 21.9315C22.521 21.9941 22.5665 22.0698 22.5934 22.1528C22.6203 22.2359 22.6277 22.3239 22.6152 22.4103C22.6026 22.4966 22.5703 22.5789 22.5209 22.6508C21.8805 23.5801 21.0403 24.3545 20.062 24.9173L20.0611 24.9192Z" fill="#AFB3CD"/>
<path d="M47.1344 21.1482C46.2741 21.1482 45.449 20.8064 44.8407 20.1981C44.2324 19.5898 43.8906 18.7647 43.8906 17.9044C43.8906 17.0441 44.2324 16.2191 44.8407 15.6107C45.449 15.0024 46.2741 14.6607 47.1344 14.6607C47.9947 14.6607 48.8198 15.0024 49.4281 15.6107C50.0364 16.2191 50.3782 17.0441 50.3782 17.9044C50.3782 18.7647 50.0364 19.5898 49.4281 20.1981C48.8198 20.8064 47.9947 21.1482 47.1344 21.1482ZM47.1344 22.2294C48.2815 22.2294 49.3816 21.7738 50.1926 20.9627C51.0037 20.1516 51.4594 19.0515 51.4594 17.9044C51.4594 16.7574 51.0037 15.6573 50.1926 14.8462C49.3816 14.0351 48.2815 13.5794 47.1344 13.5794C45.9873 13.5794 44.8873 14.0351 44.0762 14.8462C43.2651 15.6573 42.8094 16.7574 42.8094 17.9044C42.8094 19.0515 43.2651 20.1516 44.0762 20.9627C44.8873 21.7738 45.9873 22.2294 47.1344 22.2294V22.2294ZM47.1344 9.25439C47.2778 9.25439 47.4153 9.31135 47.5167 9.41274C47.6181 9.51413 47.675 9.65164 47.675 9.79502V11.9575C47.675 12.1009 47.6181 12.2384 47.5167 12.3398C47.4153 12.4412 47.2778 12.4982 47.1344 12.4982C46.991 12.4982 46.8535 12.4412 46.7521 12.3398C46.6507 12.2384 46.5938 12.1009 46.5938 11.9575V9.79502C46.5938 9.65164 46.6507 9.51413 46.7521 9.41274C46.8535 9.31135 46.991 9.25439 47.1344 9.25439V9.25439ZM47.1344 23.3107C47.2778 23.3107 47.4153 23.3676 47.5167 23.469C47.6181 23.5704 47.675 23.7079 47.675 23.8513V26.0138C47.675 26.1572 47.6181 26.2947 47.5167 26.3961C47.4153 26.4975 47.2778 26.5544 47.1344 26.5544C46.991 26.5544 46.8535 26.4975 46.7521 26.3961C46.6507 26.2947 46.5938 26.1572 46.5938 26.0138V23.8513C46.5938 23.7079 46.6507 23.5704 46.7521 23.469C46.8535 23.3676 46.991 23.3107 47.1344 23.3107V23.3107ZM55.7844 17.9044C55.7844 18.0478 55.7275 18.1853 55.6261 18.2867C55.5247 18.3881 55.3872 18.445 55.2438 18.445H53.0813C52.9379 18.445 52.8004 18.3881 52.699 18.2867C52.5976 18.1853 52.5407 18.0478 52.5407 17.9044C52.5407 17.761 52.5976 17.6235 52.699 17.5221C52.8004 17.4208 52.9379 17.3638 53.0813 17.3638H55.2438C55.3872 17.3638 55.5247 17.4208 55.6261 17.5221C55.7275 17.6235 55.7844 17.761 55.7844 17.9044ZM41.7281 17.9044C41.7281 18.0478 41.6712 18.1853 41.5698 18.2867C41.4684 18.3881 41.3309 18.445 41.1875 18.445H39.025C38.8816 18.445 38.7441 18.3881 38.6427 18.2867C38.5413 18.1853 38.4844 18.0478 38.4844 17.9044C38.4844 17.761 38.5413 17.6235 38.6427 17.5221C38.7441 17.4208 38.8816 17.3638 39.025 17.3638H41.1875C41.3309 17.3638 41.4684 17.4208 41.5698 17.5221C41.6712 17.6235 41.7281 17.761 41.7281 17.9044ZM53.2511 11.7878C53.3524 11.8892 53.4093 12.0266 53.4093 12.17C53.4093 12.3133 53.3524 12.4508 53.2511 12.5522L51.7222 14.0822C51.6719 14.1324 51.6122 14.1722 51.5466 14.1993C51.4809 14.2265 51.4106 14.2404 51.3396 14.2404C51.1961 14.2403 51.0585 14.1832 50.9572 14.0817C50.907 14.0314 50.8672 13.9717 50.84 13.9061C50.8129 13.8404 50.799 13.7701 50.799 13.699C50.7991 13.5556 50.8562 13.418 50.9577 13.3167L52.4866 11.7878C52.588 11.6864 52.7255 11.6295 52.8688 11.6295C53.0122 11.6295 53.1497 11.6864 53.2511 11.7878V11.7878ZM43.3111 21.7277C43.4124 21.8291 43.4694 21.9666 43.4694 22.11C43.4694 22.2533 43.4124 22.3908 43.3111 22.4922L41.7822 24.0211C41.6802 24.1196 41.5437 24.174 41.4019 24.1728C41.2602 24.1716 41.1246 24.1147 41.0243 24.0145C40.9241 23.9143 40.8672 23.7787 40.866 23.6369C40.8648 23.4952 40.9193 23.3586 41.0178 23.2566L42.5466 21.7277C42.648 21.6264 42.7855 21.5694 42.9289 21.5694C43.0722 21.5694 43.2097 21.6264 43.3111 21.7277V21.7277ZM53.2511 24.0211C53.1497 24.1224 53.0122 24.1794 52.8688 24.1794C52.7255 24.1794 52.588 24.1224 52.4866 24.0211L50.9577 22.4922C50.8592 22.3902 50.8047 22.2537 50.806 22.1119C50.8072 21.9702 50.8641 21.8346 50.9643 21.7343C51.0645 21.6341 51.2001 21.5772 51.3419 21.576C51.4836 21.5748 51.6202 21.6293 51.7222 21.7277L53.2511 23.2566C53.3524 23.358 53.4093 23.4955 53.4093 23.6388C53.4093 23.7822 53.3524 23.9197 53.2511 24.0211ZM43.3111 14.0822C43.2097 14.1835 43.0722 14.2405 42.9289 14.2405C42.7855 14.2405 42.648 14.1835 42.5466 14.0822L41.0178 12.5522C40.9661 12.5023 40.9249 12.4427 40.8966 12.3767C40.8683 12.3108 40.8533 12.2398 40.8527 12.168C40.8521 12.0963 40.8658 12.0251 40.893 11.9586C40.9201 11.8922 40.9603 11.8318 41.0111 11.7811C41.0618 11.7303 41.1222 11.6902 41.1886 11.663C41.2551 11.6358 41.3262 11.6221 41.398 11.6227C41.4698 11.6234 41.5408 11.6383 41.6067 11.6666C41.6727 11.6949 41.7323 11.7361 41.7822 11.7878L43.3111 13.3167C43.3614 13.3669 43.4014 13.4265 43.4286 13.4922C43.4559 13.5579 43.4699 13.6283 43.4699 13.6994C43.4699 13.7705 43.4559 13.841 43.4286 13.9066C43.4014 13.9723 43.3614 14.032 43.3111 14.0822V14.0822Z" fill="#AFB3CD"/>
<defs>
<filter id="filter0_d_6311_12895" x="28.2305" y="0" width="36.3945" height="36.395" filterUnits="userSpaceOnUse" color-interpolation-filters="sRGB">
<feFlood flood-opacity="0" result="BackgroundImageFix"/>
<feColorMatrix in="SourceAlpha" type="matrix" values="0 0 0 0 0 0 0 0 0 0 0 0 0 0 0 0 0 0 127 0" result="hardAlpha"/>
<feOffset dx="-1"/>
<feGaussianBlur stdDeviation="0.5"/>
<feColorMatrix type="matrix" values="0 0 0 0 0.760069 0 0 0 0 0.799219 0 0 0 0 0.916667 0 0 0 0.31 0"/>
<feBlend mode="normal" in2="BackgroundImageFix" result="effect1_dropShadow_6311_12895"/>
<feBlend mode="normal" in="SourceGraphic" in2="effect1_dropShadow_6311_12895" result="shape"/>
</filter>
<linearGradient id="paint0_linear_6311_12895" x1="18" y1="33" x2="20.6892" y2="1.07426" gradientUnits="userSpaceOnUse">
<stop stop-color="white"/>
<stop offset="1" stop-color="#F0F5FF"/>
</linearGradient>
<linearGradient id="paint1_linear_6311_12895" x1="70.4752" y1="19.8053" x2="12.5851" y2="-24.7802" gradientUnits="userSpaceOnUse">
<stop stop-color="#C2CBE7"/>
<stop offset="1" stop-color="#D6DBEA"/>
</linearGradient>
<linearGradient id="paint2_linear_6311_12895" x1="62.2983" y1="23.975" x2="38.1078" y2="-0.098627" gradientUnits="userSpaceOnUse">
<stop stop-color="white"/>
<stop offset="1" stop-color="#F3F7FF"/>
</linearGradient>
<linearGradient id="paint3_linear_6311_12895" x1="66.4681" y1="19.8053" x2="31.0573" y2="6.95196" gradientUnits="userSpaceOnUse">
<stop stop-color="#C2CBE7"/>
<stop offset="1" stop-color="#DCE4FD"/>
</linearGradient>
</defs>
</svg>
